#!OML:ASF F:\VICON\USERDATA\INSTALL\Justin_Nancy\Justin_Nancy.ASF
:FULLY-SPECIFIED
:DEGREES
277
root 1.0725 15.6598 -11.796 25.8255 2.86961 0.957496
lowerback 30.4149 -0.241447 1.97396
upperback 1.48805 0.781965 2.65668
thorax -14.3614 0.307425 1.49591
lowerneck -30.2403 -4.06851 -6.3046
upperneck -1.77694 -3.83329 9.09962
head 4.29883 -1.21317 3.52032
rclavicle -5.56597e-015 -5.56597e-015
rhumerus 35.9823 -8.97098 -46.2176
rradius 88.2584
rwrist -7.82145
rhand -12.0232 25.1379
rfingers 7.12502
rthumb 14.0346 -4.36831
lclavicle -5.56597e-015 -5.56597e-015
lhumerus 54.7834 -0.849121 53.6816
lradius 83.3548
lwrist 21.8072
lhand -25.3699 15.2865
lfingers 7.12502
lthumb 1.15435 45.2631
rfemur -44.6133 -2.53556 19.7647
rtibia 72.2261
rfoot -26.2633 -11.3263
rtoes -26.1947
lfemur -47.5985 -3.73149 -17.2149
ltibia 72.2086
lfoot -25.7684 -2.62247
ltoes -29.23
278
root 1.06631 15.8379 -11.4502 24.1769 2.72847 1.02176
lowerback 31.1427 -0.179784 1.78588
upperback 1.12407 0.816037 2.53387
thorax -15.1142 0.327093 1.45705
lowerneck -29.5734 -4.02714 -6.08723
upperneck -1.52105 -3.90681 9.11564
head 4.30085 -1.26062 3.47979
rclavicle -7.95139e-016 -1.59028e-014
rhumerus 37.0397 -10.6239 -42.883
rradius 90.2025
rwrist -7.53634
rhand -11.6867 23.7894
rfingers 7.12502
rthumb 14.3589 -5.69396
lclavicle -7.95139e-016 -1.59028e-014
lhumerus 56.2257 1.70996 51.6009
lradius 85.5053
lwrist 20.7105
lhand -25.6516 14.3167
lfingers 7.12502
lthumb 0.882219 44.2947
rfemur -39.9982 -2.71905 19.5346
rtibia 69.1552
rfoot -25.1504 -10.1795
rtoes -26.3914
lfemur -43.0068 -3.60351 -17.4362
ltibia 69.4153
lfoot -24.5732 -3.67145
ltoes -29.0164
279
root 1.05946 16.0109 -11.0914 22.8223 2.2621 0.859796
lowerback 31.0482 0.0428022 1.47692
upperback 1.2775 0.998421 2.6208
thorax -14.9048 0.430683 1.64414
lowerneck -30.9601 -4.28586 -6.34521
upperneck -0.463264 -4.16044 9.26382
head 4.84453 -1.32436 3.53997
rclavicle 5.56597e-015 2.94201e-014
rhumerus 38.8347 -12.7826 -39.5661
rradius 91.6636
rwrist -7.26289
rhand -11.0741 22.8019
rfingers 7.12502
rthumb 14.9491 -6.63861
lclavicle 5.56597e-015 2.94201e-014
lhumerus 57.8846 5.17198 50.1998
lradius 88.356
lwrist 20.5197
lhand -23.2698 17.3734
lfingers 7.12502
lthumb 3.18254 47.3294
rfemur -35.737 -2.58703 19.4008
rtibia 65.9484
rfoot -23.8062 -8.78761
rtoes -25.8894
lfemur -38.6518 -3.1434 -17.508
ltibia 66.4805
lfoot -23.1471 -4.68373
ltoes -29.1949
280
root 1.05582 16.1846 -10.7074 21.9107 1.74155 0.765192
lowerback 30.1199 0.339021 1.1214
upperback 1.49622 1.24173 2.74516
thorax -14.2525 0.566962 1.87471
lowerneck -32.7278 -4.64783 -6.63175
upperneck 0.770018 -4.50552 9.29394
head 5.47706 -1.43026 3.56657
rclavicle -5.56597e-015 -7.15625e-015
rhumerus 39.9597 -14.9886 -35.9591
rradius 92.8918
rwrist -7.11519
rhand -11.353 22.8132
rfingers 7.12502
rthumb 14.6804 -6.64709
lclavicle -5.56597e-015 -7.15625e-015
lhumerus 59.1465 8.49274 49.0654
lradius 89.9425
lwrist 18.765
lhand -23.7994 16.0854
lfingers 7.12502
lthumb 2.67113 46.0484
rfemur -31.7931 -2.5494 19.1388
rtibia 62.5536
rfoot -22.3677 -7.32516
rtoes -25.5669
lfemur -34.6259 -2.7123 -17.6577
ltibia 63.2923
lfoot -21.4041 -5.72466
ltoes -29.1182
281
root 1.04578 16.3547 -10.3217 21.4155 1.25298 0.683631
lowerback 29.0201 0.665963 0.552704
upperback 0.727205 1.50504 2.92872
thorax -14.6764 0.733993 2.29264
lowerneck -30.2876 -4.65627 -7.10181
upperneck 0.627978 -4.50665 9.47279
head 5.16284 -1.48369 3.68191
rclavicle -1.11319e-014 -3.26007e-014
rhumerus 39.2914 -15.4521 -31.6772
rradius 94.1476
rwrist -7.94801
rhand -11.6525 22.1362
rfingers 7.12502
rthumb 14.3919 -7.34484
lclavicle -1.11319e-014 -3.26007e-014
lhumerus 58.6497 10.7055 47.7462
lradius 92.4259
lwrist 18.91
lhand -25.6824 17.5108
lfingers 7.12502
lthumb 0.852508 47.4888
rfemur -28.3119 -2.48656 18.9181
rtibia 58.9778
rfoot -20.36 -6.00205
rtoes -26.1174
lfemur -31.085 -2.2415 -17.7172
ltibia 59.9663
lfoot -19.275 -6.85098
ltoes -28.7282
